<svg width="1920" height="1080" viewBox="0 0 1920 1080" fill="none" xmlns="http://www.w3.org/2000/svg">
<g clip-path="url(#clip0_314_208)">
<g opacity="0.2">
<path d="M1831.15 360.905L1771.63 360.722L1771.08 357.57L1829.07 357.486L1870.2 313.513L1978.87 314.11L1996.5 295.79L2090.54 296.079L2154.39 345.1L2152.12 347.456L2089.65 299.489L1998.24 298.945L1980.61 317.266L1872.28 316.932L1831.15 360.905Z" fill="#878787"/>
<path d="M2165.01 428.341L2065.61 428.035L1985.28 366.364L1914.11 365.882L1858.28 424.509L1628.53 423.802L1566.4 376.099L1490.56 376.128L1490.01 372.976L1567.64 372.953L1629.43 420.392L1855.95 421.352L1912.37 362.727L1986.18 362.954L2066.85 424.889L2164.46 425.19L2165.01 428.341Z" fill="#878787"/>
<path d="M1645.15 469.783L1489.46 469.041L1457.87 444.795L1345.04 444.185L1344.49 441.033L1458.77 441.385L1490.35 465.632L1643.06 466.364L1722.42 383.922L1865.26 384.362L1920.43 327.045L2093.38 327.84L2126.68 353.405L2155.85 353.495L2156.39 356.646L2126.04 356.553L2092.4 330.724L1922.52 330.464L1867.35 387.781L1724.5 387.341L1645.15 469.783Z" fill="#878787"/>
<path d="M2004.95 664.1L1941.6 664.167L1866.08 606.185L1783.35 605.931L1570.61 443.053L1503.35 442.846L1502.8 439.694L1571.84 439.907L1783.99 602.783L1867.32 603.039L1942.5 660.757L2004.4 660.948L2004.95 664.1Z" fill="#878787"/>
<path d="M2051.92 484.43L1959.32 483.883L1916.41 450.938L1712.85 450.312L1711.75 444.008L1918.29 444.644L1961.2 477.588L2048.09 477.856L2088.15 436.242L2170.29 436.495L2171.38 442.798L2091.97 442.816L2051.92 484.43Z" fill="#878787"/>
<path d="M1900.78 544.074L1753.77 543.621L1753.22 540.469L1898.7 540.655L1937.24 500.612L2096.41 500.839L2121.35 474.929L2183 475.381L2183.55 478.533L2123.44 478.348L2098.5 504.258L1939.58 503.769L1900.78 544.074Z" fill="#878787"/>
<path d="M2015.61 604.022L1950.39 603.559L1790.08 480.479L1699.96 480.464L1643.53 539.09L1424.5 538.415L1393.01 571.131L1340.29 570.706L1339.19 564.403L1388.59 564.555L1420.33 531.578L1639.11 532.514L1695.79 473.626L1791.62 473.921L1952.27 597.265L2011.2 597.446L2036.39 571.274L2198.28 571.772L2199.72 578.339L2040.81 577.85L2015.61 604.022Z" fill="#878787" fill-opacity="0.6"/>
<path opacity="0.6" d="M1928.69 588.258L1688.49 587.256L1561.13 489.478L1433.5 489.347L1432.06 482.781L1563.01 483.184L1690.36 580.962L1924.28 581.682L1967.86 536.404L2187.48 537.081L2188.92 543.647L1972.27 542.98L1928.69 588.258Z" fill="#878787"/>
<path d="M1427.9 609.3L1346.96 609.051L1346.41 605.899L1426.17 606.145L1472.01 558.511L1628.21 558.73L1628.76 561.881L1474 561.405L1427.9 609.3Z" fill="#878787"/>
<path d="M2170.51 743.882L1891.37 743.023L1799.71 672.654L1657.21 672.478L1592.33 622.666L1535.78 622.492L1535.24 619.34L1593.22 619.256L1657.85 669.33L1800.7 669.769L1892.01 739.875L2168.78 740.727L2211.1 696.758L2228.95 696.813L2229.5 699.964L2212.84 699.913L2170.51 743.882Z" fill="#878787"/>
<path d="M2139.42 830.15L1903.97 829.162L1875.83 807.551L1747.26 807.155L1554.68 659.302L1329.36 658.346L1300.89 687.92L1298.14 685.812L1327.62 655.19L1555.58 655.892L1748.5 804.009L1876.47 804.403L1904.62 826.015L2137.34 826.731L2152.96 810.504L2245.21 810.788L2245.76 813.94L2155.04 813.923L2139.42 830.15Z" fill="#878787"/>
<path d="M1693.57 691.745L1500.13 691.149L1499.58 687.997L1691.58 688.851L1751.54 626.561L2005.09 627.342L2073.36 556.416L2197.16 556.797L2197.71 559.948L2075.1 559.571L2007.08 630.236L1753.53 629.455L1693.57 691.745Z" fill="#878787"/>
<path d="M1779.09 359.167C1779.73 362.844 1776.96 365.723 1772.79 365.71C1768.63 365.697 1764.85 362.798 1764.21 359.121C1763.57 355.444 1766.34 352.565 1770.51 352.578C1774.42 352.852 1778.2 355.751 1779.09 359.167Z" fill="#878787"/>
<path d="M1497.51 375.098C1498.15 378.775 1495.38 381.654 1491.22 381.641C1487.05 381.628 1483.27 378.729 1482.63 375.052C1482 371.376 1484.77 368.497 1488.93 368.509C1493.1 368.522 1496.88 371.421 1497.51 375.098Z" fill="#878787"/>
<path d="M1511.68 442.868C1512.32 446.545 1509.55 449.424 1505.39 449.411C1501.22 449.398 1497.44 446.499 1496.8 442.822C1496.16 439.145 1498.94 436.266 1503.1 436.279C1507.27 436.292 1511.04 439.191 1511.68 442.868Z" fill="#878787"/>
<path d="M1355.01 607.491C1355.65 611.168 1353.13 613.785 1348.71 614.034C1344.54 614.021 1340.77 611.122 1340.13 607.445C1339.49 603.768 1342.26 600.889 1346.43 600.902C1350.59 600.915 1354.37 603.814 1355.01 607.491Z" fill="#878787"/>
<path d="M1635.96 560.589C1636.6 564.266 1633.83 567.145 1629.66 567.132C1625.5 567.119 1621.72 564.22 1621.08 560.543C1620.44 556.866 1623.21 553.988 1627.38 554C1631.55 554.013 1635.32 556.912 1635.96 560.589Z" fill="#878787"/>
<path d="M1543.75 620.415C1544.39 624.092 1541.62 626.971 1537.45 626.958C1533.29 626.945 1529.51 624.046 1528.87 620.369C1528.23 616.692 1531 613.813 1535.17 613.826C1539.33 613.839 1543.11 616.738 1543.75 620.415Z" fill="#878787"/>
<path d="M1564.19 659.32C1564.83 662.997 1562.06 665.876 1558.14 665.601C1553.98 665.588 1550.2 662.689 1549.56 659.012C1548.92 655.335 1551.69 652.456 1555.86 652.469C1559.78 652.744 1563.55 655.643 1564.19 659.32Z" fill="#878787"/>
<path d="M1871.57 603.573C1872.21 607.25 1869.44 610.129 1865.53 609.854C1861.36 609.842 1857.58 606.943 1857.29 603.529C1856.65 599.852 1859.42 596.973 1863.33 597.248C1867.16 596.997 1870.93 599.896 1871.57 603.573Z" fill="#878787"/>
<path d="M1636.25 421.991C1636.89 425.668 1634.12 428.547 1629.95 428.534C1625.78 428.521 1622.01 425.622 1621.37 421.945C1620.73 418.268 1623.5 415.389 1627.41 415.664C1631.58 415.676 1635.36 418.575 1636.25 421.991Z" fill="#878787"/>
<path d="M1761.05 541.025C1761.69 544.702 1758.92 547.581 1754.76 547.568C1750.59 547.555 1746.81 544.656 1746.52 541.243C1745.88 537.566 1748.65 534.687 1752.56 534.962C1756.64 534.449 1760.41 537.348 1761.05 541.025Z" fill="#878787"/>
<path d="M1808.36 671.102C1809 674.779 1806.23 677.658 1802.07 677.645C1797.9 677.632 1794.12 674.733 1793.48 671.056C1792.85 667.38 1795.62 664.501 1799.53 664.775C1803.95 664.526 1807.72 667.425 1808.36 671.102Z" fill="#878787"/>
<path d="M1898.56 739.893C1899.2 743.57 1896.43 746.449 1892.26 746.436C1888.1 746.423 1884.32 743.524 1883.68 739.847C1883.04 736.17 1885.81 733.291 1889.98 733.304C1894.15 733.317 1897.92 736.216 1898.56 739.893Z" fill="#878787"/>
<path d="M1304.96 687.406C1305.6 691.083 1302.83 693.962 1298.66 693.949C1294.5 693.936 1290.72 691.037 1290.08 687.36C1289.44 683.683 1292.21 680.804 1296.38 680.817C1300.55 680.83 1304.66 683.993 1304.96 687.406Z" fill="#878787"/>
<path d="M1508.45 689.341C1509.09 693.017 1506.32 695.896 1502.15 695.884C1497.99 695.871 1494.46 692.71 1493.57 689.295C1492.93 685.618 1495.7 682.739 1499.62 683.013C1504.03 682.765 1507.81 685.664 1508.45 689.341Z" fill="#878787"/>
<path d="M1759.54 628.157C1760.18 631.834 1757.41 634.713 1753.5 634.438C1749.33 634.426 1745.56 631.526 1744.92 627.85C1744.03 624.434 1747.05 621.294 1751.21 621.306C1755.47 621.845 1758.91 624.48 1759.54 628.157Z" fill="#878787"/>
<path d="M1730.78 385.795C1731.42 389.471 1728.65 392.35 1724.48 392.338C1720.32 392.325 1716.54 389.426 1715.9 385.749C1715.26 382.072 1718.03 379.193 1722.2 379.206C1726.37 379.219 1730.14 382.118 1730.78 385.795Z" fill="#878787"/>
<path d="M1879.83 315.892C1880.47 319.569 1877.7 322.448 1873.53 322.435C1869.36 322.422 1865.59 319.523 1864.95 315.846C1864.31 312.169 1867.08 309.29 1871.25 309.303C1875.16 309.578 1878.94 312.477 1879.83 315.892Z" fill="#878787"/>
<path d="M1864.21 422.694C1864.85 426.371 1862.08 429.25 1858.16 428.976C1854 428.963 1850.22 426.064 1849.58 422.387C1848.94 418.71 1851.71 415.831 1855.63 416.106C1859.89 416.644 1863.66 419.543 1864.21 422.694Z" fill="#878787"/>
<path d="M1354.04 442.906C1354.68 446.583 1351.91 449.462 1347.74 449.449C1343.58 449.436 1339.8 446.537 1339.16 442.86C1338.52 439.183 1341.29 436.304 1345.21 436.579C1349.63 436.33 1353.4 439.229 1354.04 442.906Z" fill="#878787"/>
<path d="M1443.68 486.233C1444.59 491.486 1440.81 495.412 1434.86 495.394C1429.25 495.639 1423.76 491.422 1422.85 486.169C1421.93 480.917 1425.71 476.991 1431.66 477.009C1437.61 477.027 1442.76 480.981 1443.68 486.233Z" fill="#878787"/>
<path d="M1723.36 447.453C1724.27 452.706 1720.49 456.632 1714.54 456.613C1708.84 456.333 1703.44 452.642 1702.52 447.389C1701.7 442.661 1705.39 438.21 1711.34 438.229C1717.29 438.247 1722.79 442.464 1723.36 447.453Z" fill="#878787"/>
<path d="M1928.45 448.344C1929.36 453.597 1925.58 457.523 1919.63 457.504C1913.68 457.486 1908.53 453.533 1907.62 448.28C1906.7 443.027 1910.48 439.101 1916.43 439.12C1922.39 439.138 1927.63 443.616 1928.45 448.344Z" fill="#878787"/>
<path d="M1348.75 568.098C1349.92 573.089 1345.89 577.277 1339.93 577.258C1333.98 577.24 1328.83 573.287 1327.92 568.034C1327.35 563.045 1331.13 559.119 1336.74 558.874C1342.69 558.892 1348.18 563.109 1348.75 568.098Z" fill="#878787"/>
</g>
</g>
<g clip-path="url(#clip1_314_208)">
<g opacity="0.2">
<path d="M23.9253 330.692L89.0318 331.193L89.8251 327.799L26.4124 327.027L-15.8683 279.088L-134.754 278.456L-152.913 258.478L-255.782 257.686L-328.627 309.84L-326.292 312.408L-255.013 261.376L-155.009 261.863L-136.849 281.841L-18.3554 282.753L23.9253 330.692Z" fill="#878787"/>
<path d="M-345.358 399.549L-236.63 400.386L-144.985 334.773L-67.117 335.089L-9.65773 399.016L241.653 400.951L312.541 350.199L395.485 351.121L396.279 347.726L311.381 346.789L240.885 397.26L-6.91119 395.636L-65.0216 331.705L-145.754 331.083L-237.79 396.976L-344.564 396.154L-345.358 399.549Z" fill="#878787"/>
<path d="M220.658 450.379L390.978 451.407L427.009 425.61L550.452 426.277L551.245 422.882L426.241 421.92L390.209 447.716L223.145 446.714L141.427 356.81L-14.8282 355.607L-71.6415 293.102L-260.842 291.929L-298.831 319.127L-330.734 318.882L-331.527 322.277L-298.323 322.532L-259.942 295.053L-74.1286 296.767L-17.3153 359.272L138.94 360.475L220.658 450.379Z" fill="#878787"/>
<path d="M-184.796 655.861L-115.524 656.677L-29.3623 594.99L61.1357 595.687L303.822 422.406L377.393 422.973L378.186 419.578L302.663 418.997L60.6269 592.282L-30.5221 591.58L-116.292 652.987L-184.003 652.466L-184.796 655.861Z" fill="#878787"/>
<path d="M-225.118 461.409L-123.811 461.905L-74.8557 426.856L147.809 428.57L149.395 421.78L-76.5243 420.041L-125.48 455.09L-220.535 454.359L-261.783 408.979L-351.63 408.287L-353.217 415.076L-266.366 416.029L-225.118 461.409Z" fill="#878787"/>
<path d="M-63.496 527.551L97.3171 528.789L98.1104 525.394L-61.0089 523.886L-100.7 480.218L-274.794 478.595L-300.477 450.339L-367.928 450.103L-368.722 453.498L-302.964 454.004L-277.281 482.26L-103.447 483.598L-63.496 527.551Z" fill="#878787"/>
<path d="M-188.966 596.833L-118.492 596.847L62.7206 467.107L160.067 467.792L217.175 530.621L453.794 531.606L485.663 566.667L542.634 566.625L544.231 559.925L490.863 559.703L458.739 524.361L222.375 523.657L165.012 460.547L61.4908 460.117L-120.11 590.134L-183.766 589.869L-209.261 561.82L-384.153 561.092L-386.138 568.07L-214.461 568.784L-188.966 596.833Z" fill="#878787" fill-opacity="0.6"/>
<path d="M-96.7358 574.907L166.035 576.647L311.335 472.62L450.922 473.978L452.9 466.908L309.666 465.805L164.366 569.832L-91.5021 567.862L-136.382 518.487L-376.625 516.637L-378.603 523.707L-141.616 525.532L-96.7358 574.907Z" fill="#878787" fill-opacity="0.6"/>
<path d="M449.672 603.497L538.216 604.179L539.01 600.784L451.767 600.112L404.552 548.168L233.714 546.569L232.921 549.964L402.197 551.267L449.672 603.497Z" fill="#878787"/>
<path d="M-370.781 740.018L-65.4312 742.368L39.1375 667.502L195.001 668.986L269.022 615.991L330.873 616.467L331.666 613.072L268.254 612.301L194.493 665.581L38.2371 664.378L-65.94 738.963L-368.685 736.633L-412.268 688.684L-431.8 688.534L-432.593 691.929L-414.363 692.069L-370.781 740.018Z" fill="#878787"/>
<path d="M-342.079 833.484L-84.5164 835.183L-52.4016 812.19L88.2285 813.273L307.941 655.97L554.435 657.585L583.749 689.836L586.883 687.593L556.53 654.2L307.172 652.28L87.0686 809.863L-52.9104 808.786L-85.0251 831.778L-339.592 829.818L-355.676 812.123L-456.591 811.346L-457.384 814.741L-358.163 815.788L-342.079 833.484Z" fill="#878787"/>
<path d="M154.049 689.352L365.645 690.981L366.439 687.586L156.404 686.252L94.6619 618.325L-182.692 616.19L-252.995 538.844L-388.416 537.801L-389.21 541.196L-255.09 542.229L-185.047 619.289L92.307 621.424L154.049 689.352Z" fill="#878787"/>
<path d="M80.9671 329.428C80.0415 333.388 82.8952 336.528 87.4527 336.563C92.0101 336.598 96.3182 333.514 97.2438 329.553C98.1693 325.592 95.3157 322.453 90.7582 322.418C86.4602 322.668 82.1521 325.753 80.9671 329.428Z" fill="#878787"/>
<path d="M387.941 349.928C387.015 353.889 389.869 357.028 394.427 357.063C398.984 357.098 403.292 354.014 404.218 350.053C405.143 346.093 402.29 342.953 397.732 342.918C393.175 342.883 388.867 345.967 387.941 349.928Z" fill="#878787"/>
<path d="M368.277 422.899C367.352 426.86 370.205 429.999 374.763 430.034C379.32 430.069 383.628 426.985 384.554 423.024C385.48 419.064 382.626 415.924 378.069 415.889C373.511 415.854 369.203 418.938 368.277 422.899Z" fill="#878787"/>
<path d="M529.508 602.4C528.583 606.361 531.177 609.215 535.994 609.536C540.551 609.571 544.86 606.486 545.785 602.526C546.711 598.565 543.857 595.426 539.299 595.39C534.742 595.355 530.434 598.44 529.508 602.4Z" fill="#878787"/>
<path d="M225.118 548.485C224.193 552.445 227.046 555.585 231.604 555.62C236.161 555.655 240.469 552.571 241.395 548.61C242.32 544.649 239.467 541.51 234.909 541.475C230.352 541.44 226.044 544.524 225.118 548.485Z" fill="#878787"/>
<path d="M322.29 614.132C321.365 618.092 324.218 621.232 328.776 621.267C333.333 621.302 337.641 618.218 338.567 614.257C339.492 610.296 336.639 607.157 332.081 607.122C327.524 607.087 323.216 610.171 322.29 614.132Z" fill="#878787"/>
<path d="M297.542 655.878C296.616 659.839 299.47 662.978 303.768 662.728C308.325 662.763 312.633 659.679 313.559 655.718C314.484 651.757 311.631 648.618 307.073 648.583C302.775 648.833 298.467 651.918 297.542 655.878Z" fill="#878787"/>
<path d="M233.329 398.905C232.404 402.866 235.257 406.005 239.815 406.041C244.372 406.076 248.68 402.991 249.606 399.031C250.531 395.07 247.678 391.93 243.38 392.181C238.822 392.146 234.514 395.23 233.329 398.905Z" fill="#878787"/>
<path d="M89.5118 525.902C88.5862 529.863 91.4398 533.002 95.9973 533.037C100.555 533.072 104.863 529.988 105.397 526.308C106.322 522.347 103.469 519.208 99.1707 519.458C94.7454 518.857 90.4373 521.942 89.5118 525.902Z" fill="#878787"/>
<path d="M29.77 665.726C28.8445 669.687 31.6981 672.826 36.2556 672.862C40.813 672.897 45.1211 669.812 46.0467 665.852C46.9722 661.891 44.1186 658.751 39.8206 659.002C35.0037 658.681 30.6956 661.766 29.77 665.726Z" fill="#878787"/>
<path d="M579.329 689.233C578.404 693.194 581.257 696.333 585.815 696.368C590.372 696.403 594.68 693.319 595.606 689.358C596.531 685.398 593.678 682.258 589.12 682.223C584.563 682.188 579.863 685.553 579.329 689.233Z" fill="#878787"/>
<path d="M356.659 688.931C355.734 692.892 358.587 696.031 363.145 696.066C367.702 696.101 371.751 692.732 372.936 689.056C373.861 685.096 371.008 681.956 366.71 682.207C361.893 681.886 357.585 684.97 356.659 688.931Z" fill="#878787"/>
<path d="M85.8039 619.953C84.8783 623.914 87.7319 627.053 92.03 626.803C96.5874 626.838 100.896 623.753 101.821 619.793C103.006 616.117 99.893 612.693 95.3356 612.658C90.6459 613.188 86.7294 615.992 85.8039 619.953Z" fill="#878787"/>
<path d="M132.163 358.732C131.238 362.693 134.091 365.832 138.649 365.867C143.206 365.902 147.514 362.818 148.44 358.857C149.365 354.897 146.512 351.757 141.954 351.722C137.397 351.687 133.089 354.771 132.163 358.732Z" fill="#878787"/>
<path d="M-16.0318 396.988C-16.9574 400.948 -14.1038 404.088 -9.80575 403.837C-5.24831 403.873 -0.940247 400.788 -0.014694 396.828C0.910859 392.867 -1.94276 389.727 -6.24078 389.978C-10.9304 390.508 -15.2385 393.593 -16.0318 396.988Z" fill="#878787"/>
<path d="M540.684 424.791C539.759 428.752 542.612 431.891 547.17 431.926C551.727 431.961 556.035 428.877 556.961 424.916C557.886 420.956 555.033 417.816 550.735 418.067C545.918 417.746 541.61 420.83 540.684 424.791Z" fill="#878787"/>
<path d="M439.988 470.498C438.666 476.156 442.557 480.437 449.068 480.487C455.187 480.818 461.453 476.331 462.776 470.673C464.098 465.015 460.206 460.734 453.696 460.684C447.185 460.634 441.311 464.84 439.988 470.498Z" fill="#878787"/>
<path d="M136.494 425.361C135.171 431.019 139.063 435.3 145.573 435.351C151.824 435.115 157.959 431.195 159.281 425.537C160.471 420.444 156.712 415.597 150.201 415.547C143.69 415.497 137.424 419.984 136.494 425.361Z" fill="#878787"/>
<path d="M538.774 559.961C537.193 565.334 541.343 569.9 547.854 569.951C554.365 570.001 560.239 565.795 561.561 560.137C562.492 554.759 558.601 550.478 552.482 550.147C545.971 550.097 539.705 554.584 538.774 559.961Z" fill="#878787"/>
</g>
</g>
<defs>
<clipPath id="clip0_314_208">
<rect width="918.366" height="809.348" fill="white" transform="matrix(0.793191 0.608973 -0.693481 0.720475 1741.27 22)"/>
</clipPath>
<clipPath id="clip1_314_208">
<rect width="1022.11" height="859.321" fill="white" transform="matrix(-0.813093 0.582133 0.672614 0.739993 143.067 -34)"/>
</clipPath>
</defs>
</svg>
