<svg width="154" height="146" viewBox="0 0 154 146" fill="#ffffff33" xmlns="http://www.w3.org/2000/svg">
<path d="M142 2H12C6.47715 2 2 6.47715 2 12V62.5805C2 68.1033 6.47714 72.5805 12 72.5805H38.0323C43.5551 72.5805 48.0323 77.0576 48.0323 82.5805V133.517C48.0323 139.04 52.5094 143.517 58.0323 143.517H142C147.523 143.517 152 139.04 152 133.517V12C152 6.47715 147.523 2 142 2Z" stroke="#3E3E3E" stroke-width="4"/>
<path d="M65.24 52.1356C62.92 52.1356 61.25 51.6756 60.23 50.7556C59.21 49.8356 58.7 48.4656 58.7 46.6456C58.7 46.0256 58.73 45.4256 58.79 44.8456C58.85 44.2656 58.92 43.7056 59 43.1656C59.36 40.8056 60.17 38.9756 61.43 37.6756C62.69 36.3556 64.57 35.6956 67.07 35.6956C68.77 35.6956 70.13 36.0156 71.15 36.6556C72.17 37.2756 72.68 38.3756 72.68 39.9556C72.68 41.0156 72.46 41.8856 72.02 42.5656C71.6 43.2456 71.03 43.7756 70.31 44.1556C69.59 44.5156 68.77 44.7756 67.85 44.9356C66.95 45.0756 66.01 45.1456 65.03 45.1456C64.03 45.1456 63.13 45.0956 62.33 44.9956C61.53 44.8956 60.93 44.7856 60.53 44.6656C60.49 45.0056 60.46 45.3556 60.44 45.7156C60.42 46.0556 60.41 46.3956 60.41 46.7356C60.41 48.1356 60.82 49.1556 61.64 49.7956C62.46 50.4356 63.83 50.7556 65.75 50.7556H70.52L70.34 51.8356C69.76 51.8956 69 51.9556 68.06 52.0156C67.14 52.0956 66.2 52.1356 65.24 52.1356ZM64.31 44.0056C65.63 44.0056 66.79 43.8956 67.79 43.6756C68.81 43.4556 69.6 43.0656 70.16 42.5056C70.72 41.9456 71 41.1556 71 40.1356C71 39.0356 70.66 38.2556 69.98 37.7956C69.3 37.3356 68.29 37.1056 66.95 37.1056C65.55 37.1056 64.43 37.3656 63.59 37.8856C62.75 38.4056 62.1 39.1556 61.64 40.1356C61.18 41.0956 60.85 42.2756 60.65 43.6756C61.13 43.7756 61.69 43.8556 62.33 43.9156C62.97 43.9756 63.63 44.0056 64.31 44.0056ZM74.6255 51.9556L77.1455 35.9656H78.4955L78.5855 37.7656C79.4855 37.1856 80.4955 36.7056 81.6155 36.3256C82.7355 35.9256 83.8955 35.7256 85.0955 35.7256C86.6155 35.7256 87.6855 36.0956 88.3055 36.8356C88.9255 37.5756 89.2355 38.4756 89.2355 39.5356C89.2355 39.7556 89.2155 40.0356 89.1755 40.3756C89.1555 40.7156 89.0855 41.3156 88.9655 42.1756L87.4055 51.9556H85.6655L87.1955 42.2356C87.2955 41.5556 87.3655 41.0856 87.4055 40.8256C87.4455 40.5456 87.4655 40.3156 87.4655 40.1356C87.4655 39.3356 87.2355 38.6656 86.7755 38.1256C86.3155 37.5656 85.4955 37.2856 84.3155 37.2856C83.1555 37.2856 82.1355 37.4456 81.2555 37.7656C80.3755 38.0656 79.4255 38.5056 78.4055 39.0856L76.3655 51.9556H74.6255ZM97.4942 51.9556C96.2342 51.9556 95.2842 51.6656 94.6442 51.0856C94.0242 50.5056 93.7142 49.6856 93.7142 48.6256C93.7142 48.2056 93.7342 47.7856 93.7742 47.3656C93.8342 46.9456 93.9042 46.5256 93.9842 46.1056L95.4542 37.4356H92.8742L93.0542 36.2956L95.6642 35.9656L96.7142 31.4956H98.0342L97.3142 35.9656H102.144L101.934 37.4356H97.0742L95.6942 46.1056C95.6542 46.4256 95.6042 46.7856 95.5442 47.1856C95.4842 47.5656 95.4542 47.9356 95.4542 48.2956C95.4542 49.6556 96.1942 50.3956 97.6742 50.5156L99.5942 50.6956L99.3842 51.9556H97.4942ZM110.152 52.1356C107.832 52.1356 106.162 51.6756 105.142 50.7556C104.122 49.8356 103.612 48.4656 103.612 46.6456C103.612 46.0256 103.642 45.4256 103.702 44.8456C103.762 44.2656 103.832 43.7056 103.912 43.1656C104.272 40.8056 105.082 38.9756 106.342 37.6756C107.602 36.3556 109.482 35.6956 111.982 35.6956C113.682 35.6956 115.042 36.0156 116.062 36.6556C117.082 37.2756 117.592 38.3756 117.592 39.9556C117.592 41.0156 117.372 41.8856 116.932 42.5656C116.512 43.2456 115.942 43.7756 115.222 44.1556C114.502 44.5156 113.682 44.7756 112.762 44.9356C111.862 45.0756 110.922 45.1456 109.942 45.1456C108.942 45.1456 108.042 45.0956 107.242 44.9956C106.442 44.8956 105.842 44.7856 105.442 44.6656C105.402 45.0056 105.372 45.3556 105.352 45.7156C105.332 46.0556 105.322 46.3956 105.322 46.7356C105.322 48.1356 105.732 49.1556 106.552 49.7956C107.372 50.4356 108.742 50.7556 110.662 50.7556H115.432L115.252 51.8356C114.672 51.8956 113.912 51.9556 112.972 52.0156C112.052 52.0956 111.112 52.1356 110.152 52.1356ZM109.222 44.0056C110.542 44.0056 111.702 43.8956 112.702 43.6756C113.722 43.4556 114.512 43.0656 115.072 42.5056C115.632 41.9456 115.912 41.1556 115.912 40.1356C115.912 39.0356 115.572 38.2556 114.892 37.7956C114.212 37.3356 113.202 37.1056 111.862 37.1056C110.462 37.1056 109.342 37.3656 108.502 37.8856C107.662 38.4056 107.012 39.1556 106.552 40.1356C106.092 41.0956 105.762 42.2756 105.562 43.6756C106.042 43.7756 106.602 43.8556 107.242 43.9156C107.882 43.9756 108.542 44.0056 109.222 44.0056ZM119.538 51.9556L122.058 35.9656H123.498V37.8856C124.158 37.3456 124.908 36.8656 125.748 36.4456C126.608 36.0056 127.548 35.7856 128.568 35.7856C128.968 35.7856 129.338 35.8056 129.678 35.8456C130.038 35.8856 130.358 35.9456 130.638 36.0256L130.368 37.7656C129.708 37.6256 128.988 37.5556 128.208 37.5556C127.248 37.5556 126.358 37.7256 125.538 38.0656C124.718 38.4056 123.968 38.7956 123.288 39.2356L121.278 51.9556H119.538Z" fill="#999999"/>
<path d="M116.707 100.856C117.098 100.466 117.098 99.8326 116.707 99.4421L110.343 93.0781C109.953 92.6876 109.319 92.6876 108.929 93.0781C108.538 93.4687 108.538 94.1018 108.929 94.4923L114.586 100.149L108.929 105.806C108.538 106.197 108.538 106.83 108.929 107.22C109.319 107.611 109.953 107.611 110.343 107.22L116.707 100.856ZM80 83.0302V94.1492H82V83.0302H80ZM87 101.149H116V99.1492H87V101.149ZM80 94.1492C80 98.0152 83.134 101.149 87 101.149V99.1492C84.2386 99.1492 82 96.9106 82 94.1492H80Z" fill="#3E3E3E"/>
</svg>
