<svg width="567" height="141" viewBox="0 0 567 141" fill="none" xmlns="http://www.w3.org/2000/svg">
<rect x="2.5" y="2.5" width="562" height="135.376" rx="27.5" stroke="#333333" stroke-width="5"/>
<path d="M108.024 89C105.641 89 103.752 88.4683 102.359 87.405C100.966 86.3417 100.269 84.5633 100.269 82.07C100.269 81.2633 100.324 80.475 100.434 79.705L105.384 48.41H112.204L107.419 78.825C107.346 79.2283 107.309 79.6317 107.309 80.035C107.309 81.135 107.621 81.8867 108.244 82.29C108.904 82.6933 109.766 82.895 110.829 82.895H124.194L123.259 89H108.024ZM136.31 89.33C133.78 89.33 131.91 88.725 130.7 87.515C129.527 86.2683 128.94 84.5633 128.94 82.4C128.94 81.7033 128.959 81.0983 128.995 80.585C129.069 80.035 129.142 79.5217 129.215 79.045L132.295 59.52H139.115L136.2 78.275C136.127 78.7517 136.09 79.2283 136.09 79.705C136.09 82.0517 137.447 83.225 140.16 83.225C141.7 83.225 143.075 82.9867 144.285 82.51C145.495 82.0333 146.705 81.3917 147.915 80.585L151.27 59.52H158.09L153.415 89H147.42L147.09 85.92C145.477 86.9833 143.864 87.8267 142.25 88.45C140.674 89.0367 138.694 89.33 136.31 89.33ZM166.173 54.845C165.44 54.845 165.147 54.515 165.293 53.855L166.063 48.85C166.173 48.1167 166.577 47.75 167.273 47.75H172.443C173.067 47.75 173.323 48.1167 173.213 48.85L172.443 53.855C172.333 54.515 171.967 54.845 171.343 54.845H166.173ZM159.903 89L164.523 59.52H171.343L166.723 89H159.903ZM184.666 89.33C182.503 89.33 180.321 89.22 178.121 89C175.921 88.8167 174.179 88.5417 172.896 88.175L173.501 84.16H186.151C187.398 84.16 188.406 83.9583 189.176 83.555C189.946 83.115 190.423 82.4 190.606 81.41L190.826 79.87C190.863 79.7233 190.881 79.595 190.881 79.485C190.881 79.375 190.881 79.2833 190.881 79.21C190.881 77.78 189.946 77.065 188.076 77.065H183.291C180.871 77.065 178.909 76.625 177.406 75.745C175.939 74.865 175.206 73.435 175.206 71.455C175.206 71.0883 175.206 70.7033 175.206 70.3C175.243 69.8967 175.298 69.4567 175.371 68.98L175.756 66.835C176.013 65.3317 176.544 64.0117 177.351 62.875C178.158 61.7383 179.349 60.84 180.926 60.18C182.539 59.52 184.666 59.19 187.306 59.19C188.406 59.19 189.653 59.245 191.046 59.355C192.439 59.465 193.796 59.6117 195.116 59.795C196.436 59.9417 197.554 60.1433 198.471 60.4L197.811 64.415H186.041C184.684 64.415 183.694 64.6533 183.071 65.13C182.448 65.57 182.026 66.285 181.806 67.275L181.641 68.43C181.531 69.09 181.476 69.5483 181.476 69.805C181.476 70.4283 181.696 70.8867 182.136 71.18C182.613 71.4367 183.438 71.565 184.611 71.565H189.781C192.018 71.565 193.814 72.0783 195.171 73.105C196.564 74.095 197.261 75.5067 197.261 77.34C197.261 77.67 197.243 78.0183 197.206 78.385C197.206 78.7517 197.169 79.1183 197.096 79.485L196.711 82.125C196.308 84.765 195.043 86.635 192.916 87.735C190.789 88.7983 188.039 89.33 184.666 89.33ZM214.857 89L221.292 48.41H236.417C239.864 48.41 242.559 48.9783 244.502 50.115C246.446 51.2517 247.802 52.8833 248.572 55.01C249.342 57.1367 249.727 59.6483 249.727 62.545C249.727 63.7183 249.672 64.9283 249.562 66.175C249.452 67.385 249.306 68.595 249.122 69.805C248.096 76.185 246.042 80.9883 242.962 84.215C239.919 87.405 235.592 89 229.982 89H214.857ZM222.667 82.895H230.642C232.989 82.895 234.932 82.3083 236.472 81.135C238.049 79.9617 239.296 78.3117 240.212 76.185C241.166 74.0583 241.862 71.5467 242.302 68.65C242.522 67.4033 242.669 66.285 242.742 65.295C242.852 64.305 242.907 63.4617 242.907 62.765C242.907 59.905 242.302 57.815 241.092 56.495C239.919 55.175 237.811 54.515 234.767 54.515H227.122L222.667 82.895ZM275.181 89L280.626 54.515H268.911L269.901 48.41H300.151L299.161 54.515H287.446L282.001 89H275.181ZM308.544 89.33C304.877 89.33 302.072 88.505 300.129 86.855C298.186 85.205 297.214 82.6383 297.214 79.155C297.214 78.165 297.251 77.23 297.324 76.35C297.397 75.4333 297.507 74.535 297.654 73.655C298.094 70.685 298.717 68.265 299.524 66.395C300.367 64.4883 301.394 63.0217 302.604 61.995C303.851 60.9683 305.354 60.2533 307.114 59.85C308.874 59.41 310.927 59.19 313.274 59.19C316.244 59.19 318.536 59.5933 320.149 60.4C321.799 61.17 322.936 62.3433 323.559 63.92C324.219 65.46 324.549 67.4217 324.549 69.805C324.549 70.685 324.512 71.62 324.439 72.61C324.366 73.6 324.237 74.6267 324.054 75.69C323.504 79.2833 322.606 82.07 321.359 84.05C320.112 86.03 318.444 87.405 316.354 88.175C314.264 88.945 311.661 89.33 308.544 89.33ZM309.314 83.83C310.891 83.83 312.192 83.5917 313.219 83.115C314.246 82.6383 315.071 81.7583 315.694 80.475C316.354 79.155 316.886 77.23 317.289 74.7C317.436 73.6367 317.546 72.6833 317.619 71.84C317.729 70.9967 317.784 70.2267 317.784 69.53C317.784 67.6967 317.362 66.4133 316.519 65.68C315.676 64.9467 314.282 64.58 312.339 64.58C310.689 64.58 309.351 64.855 308.324 65.405C307.297 65.9183 306.472 66.9083 305.849 68.375C305.262 69.805 304.749 71.9133 304.309 74.7C304.199 75.5067 304.107 76.2583 304.034 76.955C303.961 77.615 303.924 78.2567 303.924 78.88C303.924 80.86 304.401 82.18 305.354 82.84C306.307 83.5 307.627 83.83 309.314 83.83ZM327.535 89L332.21 59.52H338.205L338.425 63.26C339.525 62.16 340.772 61.2067 342.165 60.4C343.558 59.5933 345.117 59.19 346.84 59.19C347.463 59.19 348.032 59.2267 348.545 59.3C349.095 59.3367 349.59 59.4283 350.03 59.575L349.04 66.34C347.867 66.23 346.657 66.175 345.41 66.175C343.76 66.175 342.275 66.4317 340.955 66.945C339.635 67.4583 338.517 68.045 337.6 68.705L334.355 89H327.535ZM350.147 89L354.822 59.52H360.817L361.037 63.26C362.137 62.16 363.384 61.2067 364.777 60.4C366.171 59.5933 367.729 59.19 369.452 59.19C370.076 59.19 370.644 59.2267 371.157 59.3C371.707 59.3367 372.202 59.4283 372.642 59.575L371.652 66.34C370.479 66.23 369.269 66.175 368.022 66.175C366.372 66.175 364.887 66.4317 363.567 66.945C362.247 67.4583 361.129 68.045 360.212 68.705L356.967 89H350.147ZM385.63 89.33C381.376 89.33 378.351 88.4133 376.555 86.58C374.758 84.71 373.86 82.0333 373.86 78.55C373.86 77.5233 373.915 76.5333 374.025 75.58C374.135 74.59 374.263 73.6367 374.41 72.72C375.143 68.0633 376.756 64.635 379.25 62.435C381.78 60.235 385.245 59.135 389.645 59.135C391.625 59.135 393.44 59.3733 395.09 59.85C396.776 60.3267 398.115 61.1883 399.105 62.435C400.131 63.645 400.645 65.3867 400.645 67.66C400.645 69.6767 400.296 71.345 399.6 72.665C398.903 73.9483 397.931 74.9383 396.685 75.635C395.475 76.3317 394.081 76.8267 392.505 77.12C390.928 77.3767 389.278 77.505 387.555 77.505C386.051 77.505 384.695 77.45 383.485 77.34C382.311 77.1933 381.395 77.0283 380.735 76.845C380.625 77.615 380.57 78.44 380.57 79.32C380.57 81.0433 381.156 82.3083 382.33 83.115C383.54 83.885 385.52 84.27 388.27 84.27H397.51L396.85 88.285C395.493 88.5417 393.825 88.78 391.845 89C389.901 89.22 387.83 89.33 385.63 89.33ZM385.685 73.6C388.508 73.6 390.653 73.215 392.12 72.445C393.586 71.675 394.32 70.3183 394.32 68.375C394.32 65.6983 392.615 64.36 389.205 64.36C386.675 64.36 384.805 65.13 383.595 66.67C382.421 68.1733 381.615 70.355 381.175 73.215C381.798 73.325 382.495 73.4167 383.265 73.49C384.071 73.5633 384.878 73.6 385.685 73.6ZM414.441 89.33C412.278 89.33 410.096 89.22 407.896 89C405.696 88.8167 403.955 88.5417 402.671 88.175L403.276 84.16H415.926C417.173 84.16 418.181 83.9583 418.951 83.555C419.721 83.115 420.198 82.4 420.381 81.41L420.601 79.87C420.638 79.7233 420.656 79.595 420.656 79.485C420.656 79.375 420.656 79.2833 420.656 79.21C420.656 77.78 419.721 77.065 417.851 77.065H413.066C410.646 77.065 408.685 76.625 407.181 75.745C405.715 74.865 404.981 73.435 404.981 71.455C404.981 71.0883 404.981 70.7033 404.981 70.3C405.018 69.8967 405.073 69.4567 405.146 68.98L405.531 66.835C405.788 65.3317 406.32 64.0117 407.126 62.875C407.933 61.7383 409.125 60.84 410.701 60.18C412.315 59.52 414.441 59.19 417.081 59.19C418.181 59.19 419.428 59.245 420.821 59.355C422.215 59.465 423.571 59.6117 424.891 59.795C426.211 59.9417 427.33 60.1433 428.246 60.4L427.586 64.415H415.816C414.46 64.415 413.47 64.6533 412.846 65.13C412.223 65.57 411.801 66.285 411.581 67.275L411.416 68.43C411.306 69.09 411.251 69.5483 411.251 69.805C411.251 70.4283 411.471 70.8867 411.911 71.18C412.388 71.4367 413.213 71.565 414.386 71.565H419.556C421.793 71.565 423.59 72.0783 424.946 73.105C426.34 74.095 427.036 75.5067 427.036 77.34C427.036 77.67 427.018 78.0183 426.981 78.385C426.981 78.7517 426.945 79.1183 426.871 79.485L426.486 82.125C426.083 84.765 424.818 86.635 422.691 87.735C420.565 88.7983 417.815 89.33 414.441 89.33ZM444.633 89L451.068 48.41H467.018C468.924 48.41 470.629 48.7217 472.133 49.345C473.673 49.9317 474.901 50.9767 475.818 52.48C476.734 53.9833 477.193 56.055 477.193 58.695C477.193 59.245 477.138 59.9233 477.028 60.73C476.918 61.5 476.808 62.1967 476.698 62.82C476.184 66.12 475.268 68.705 473.948 70.575C472.628 72.4083 471.088 73.6917 469.328 74.425C467.568 75.1583 465.771 75.525 463.938 75.525C462.178 75.525 460.344 75.4517 458.438 75.305C456.568 75.1217 455.009 74.92 453.763 74.7L451.453 89H444.633ZM454.533 69.42H463.113C464.799 69.42 466.266 68.8517 467.513 67.715C468.759 66.5417 469.566 64.6717 469.933 62.105C470.006 61.6283 470.079 61.1333 470.153 60.62C470.226 60.07 470.263 59.6483 470.263 59.355C470.263 57.5583 469.859 56.3117 469.053 55.615C468.283 54.8817 467.164 54.515 465.698 54.515H456.898L454.533 69.42Z" fill="black"/>
</svg>
